<svg xmlns="http://www.w3.org/2000/svg" version="1.1" xmlns:xlink="http://www.w3.org/1999/xlink" width="500" height="500"><svg xmlns="http://www.w3.org/2000/svg" version="1.1" xmlns:xlink="http://www.w3.org/1999/xlink" width="500" height="500"><svg xmlns="http://www.w3.org/2000/svg" viewBox="0 0 500 500"><path fill="#e87a3e" d="M11 49c21 0 56 2 76 0 26-3 179 1 191 1 32-3 74-3 107-3l75 1c3 0 35-1 35 2v65c5 81-9 163-1 243 2 26 3 93 0 95-6 3-67-4-91-1-17 2-248-3-270 1-23 3-129-1-129-2v-39l3-54 2-75c5-9 0-76 0-78l1-159" class="s0"></path><path fill="#fff" d="M215 170h31q6 0 6 6v154q0 7-6 7h-31q-5 0-6-6v-21l-1-36-1-2h-57q-2 0-2 2v57q0 6-6 6h-31q-6 0-6-7v-24l1-27v-52l-1-39v-12q0-6 6-6h31l4 1q2 2 2 5v56q0 2 2 2h57l1-2v-19l1-19v-18l1-4q2-2 5-2m63 6q0-6 6-6h55q13 0 26 3t24 10 16 18a58 58 0 0 1 6 28q0 20-8 33-9 14-23 20-14 7-33 7h-23q-2 0-2 2l-1 40q0 6-5 6h-32q-6 0-6-6l1-13V202zm44 75h23q6 0 11-3 6-2 9-7a18 18 0 0 0 2-16 21 21 0 0 0-8-12q-6-4-14-4h-23v21z" aria-label="quiz HP" class="s2"></path></svg></svg><style>@media (prefers-color-scheme: light) { :root { filter: none; } }
@media (prefers-color-scheme: dark) { :root { filter: none; } }
</style></svg>